<?xml version="1.0" encoding="UTF-8" standalone="no"?>
<!-- Created with Inkscape (http://www.inkscape.org/) -->

<svg
   xmlns:dc="http://purl.org/dc/elements/1.1/"
   xmlns:cc="http://creativecommons.org/ns#"
   xmlns:rdf="http://www.w3.org/1999/02/22-rdf-syntax-ns#"
   xmlns:svg="http://www.w3.org/2000/svg"
   xmlns="http://www.w3.org/2000/svg"
   xmlns:sodipodi="http://sodipodi.sourceforge.net/DTD/sodipodi-0.dtd"
   xmlns:inkscape="http://www.inkscape.org/namespaces/inkscape"
   width="120cm"
   height="120cm"
   viewBox="0 0 1200 1200"
   version="1.1"
   id="svg8"
   sodipodi:docname="grass.svg"
   inkscape:export-filename="C:\Users\Jan CW Kroeze\Documents\GitHub\vulkan-experiments\grass.png"
   inkscape:export-xdpi="43.349335"
   inkscape:export-ydpi="43.349335"
   inkscape:version="0.92.4 (5da689c313, 2019-01-14)">
  <defs
     id="defs2" />
  <sodipodi:namedview
     id="base"
     pagecolor="#ffffff"
     bordercolor="#666666"
     borderopacity="1.0"
     inkscape:pageopacity="0.0"
     inkscape:pageshadow="2"
     inkscape:zoom="0.49497475"
     inkscape:cx="1306.2794"
     inkscape:cy="503.76896"
     inkscape:document-units="mm"
     inkscape:current-layer="layer1"
     showgrid="true"
     units="cm"
     showguides="false"
     inkscape:snap-grids="true"
     inkscape:window-width="958"
     inkscape:window-height="1008"
     inkscape:window-x="953"
     inkscape:window-y="0"
     inkscape:window-maximized="0">
    <inkscape:grid
       type="xygrid"
       id="grid3713"
       units="cm"
       spacingx="300"
       spacingy="300" />
  </sodipodi:namedview>
  <metadata
     id="metadata5">
    <rdf:RDF>
      <cc:Work
         rdf:about="">
        <dc:format>image/svg+xml</dc:format>
        <dc:type
           rdf:resource="http://purl.org/dc/dcmitype/StillImage" />
        <dc:title></dc:title>
      </cc:Work>
    </rdf:RDF>
  </metadata>
  <g
     inkscape:label="Layer 1"
     inkscape:groupmode="layer"
     id="layer1"
     transform="translate(0,903.00001)">
    <path
       style="fill:#008000;stroke:#004300;stroke-width:1.86500001;stroke-linecap:butt;stroke-linejoin:miter;stroke-miterlimit:4;stroke-dasharray:none;stroke-opacity:1"
       d="M 206.375,297 C 206.37501,5.9583103 127,122.375 74.083336,0.66664823 74.083336,74.74998 164.24722,104.27135 168.7988,196.24073 169.33334,207.04166 148.16667,297 148.16667,297 Z"
       id="path3729"
       inkscape:connector-curvature="0"
       sodipodi:nodetypes="ccscc" />
    <path
       style="opacity:1;fill:#008000;stroke:#004300;stroke-width:1.76499999;stroke-linecap:butt;stroke-linejoin:miter;stroke-miterlimit:4;stroke-dasharray:none;stroke-opacity:1"
       d="M 89.958333,297 C 89.958323,5.9583021 169.33333,122.375 222.25,0.66663901 222.25,74.749974 132.08611,104.27136 127.53453,196.24074 126.99999,207.04167 148.16666,297 148.16666,297 Z"
       id="path3729-5"
       inkscape:connector-curvature="0"
       sodipodi:nodetypes="ccscc" />
    <path
       style="opacity:1;vector-effect:none;fill:#008000;fill-opacity:1;stroke:#004300;stroke-width:1.86500001;stroke-linecap:butt;stroke-linejoin:miter;stroke-miterlimit:4;stroke-dasharray:none;stroke-dashoffset:0;stroke-opacity:1"
       d="m 264.58333,297 c 0,0 14.74024,-72.54042 -10.58333,-87.3125 -31.75,-18.52084 -10.58333,-87.3125 -10.58333,-87.3125 0,0 -57.78124,64.6228 -18.09374,93.72696 C 248.88945,233.38408 206.375,297 206.375,297 Z"
       id="path4551"
       inkscape:connector-curvature="0"
       sodipodi:nodetypes="cscscc" />
    <path
       style="opacity:1;vector-effect:none;fill:#008000;fill-opacity:1;stroke:#004300;stroke-width:1.40980756;stroke-linecap:butt;stroke-linejoin:miter;stroke-miterlimit:4;stroke-dasharray:none;stroke-dashoffset:0;stroke-opacity:1"
       d="m 263.07143,297 c 0,0 -8.42299,-72.54043 6.04761,-87.31251 18.14286,-18.52084 6.04763,-87.3125 6.04763,-87.3125 0,0 33.01785,64.6228 10.33928,93.72696 C 272.03936,233.38408 296.33333,297 296.33333,297 Z"
       id="path4551-7"
       inkscape:connector-curvature="0"
       sodipodi:nodetypes="cscscc" />
    <path
       style="opacity:1;vector-effect:none;fill:#008000;fill-opacity:1;stroke:#004300;stroke-width:1.86500001;stroke-linecap:butt;stroke-linejoin:miter;stroke-miterlimit:4;stroke-dasharray:none;stroke-dashoffset:0;stroke-opacity:1"
       d="m 95.25,297 c 0,0 14.74024,-72.54042 -10.58333,-87.3125 -31.75,-18.52084 -10.58333,-87.3125 -10.58333,-87.3125 0,0 -57.78124,64.6228 -18.09374,93.72696 C 79.55612,233.38408 37.04167,297 37.04167,297 Z"
       id="path4551-3"
       inkscape:connector-curvature="0"
       sodipodi:nodetypes="cscscc" />
    <path
       style="opacity:1;vector-effect:none;fill:#008000;fill-opacity:1;stroke:#004300;stroke-width:1.40980768;stroke-linecap:butt;stroke-linejoin:miter;stroke-miterlimit:4;stroke-dasharray:none;stroke-dashoffset:0;stroke-opacity:1"
       d="m 5.2916667,297 c 0,0 -8.42299,-72.54043 6.0476103,-87.31251 18.142859,-18.52084 6.04763,-87.3125 6.04763,-87.3125 0,0 33.017847,64.6228 10.339279,93.72696 C 14.259597,233.38408 38.553566,297 38.553566,297 Z"
       id="path4551-7-3"
       inkscape:connector-curvature="0"
       sodipodi:nodetypes="cscscc" />
  </g>
</svg>
